<?xml version="1.0" encoding="UTF-8" standalone="no"?>
<!-- Created with Inkscape (http://www.inkscape.org/) -->

<svg
   xmlns:dc="http://purl.org/dc/elements/1.1/"
   xmlns:cc="http://creativecommons.org/ns#"
   xmlns:rdf="http://www.w3.org/1999/02/22-rdf-syntax-ns#"
   xmlns:svg="http://www.w3.org/2000/svg"
   xmlns="http://www.w3.org/2000/svg"
   xmlns:sodipodi="http://sodipodi.sourceforge.net/DTD/sodipodi-0.dtd"
   xmlns:inkscape="http://www.inkscape.org/namespaces/inkscape"
   width="210mm"
   height="297mm"
   viewBox="0 0 744.09448819 1052.3622047"
   id="svg4252"
   version="1.1"
   inkscape:version="0.91 r13725"
   sodipodi:docname="logoLMotro.svg"
   inkscape:export-filename="/home/erre/Documentos/Denovoc/sports analytics/league-manager/www/data/logos/lm-header00.png"
   inkscape:export-xdpi="150.8"
   inkscape:export-ydpi="150.8">
  <defs
     id="defs4254">
    <clipPath
       clipPathUnits="userSpaceOnUse"
       id="clipPath32">
      <path
         d="m 0,385.409 384.017,0 L 384.017,0 0,0 0,385.409 Z"
         id="path34"
         inkscape:connector-curvature="0" />
    </clipPath>
  </defs>
  <sodipodi:namedview
     id="base"
     pagecolor="#ffffff"
     bordercolor="#666666"
     borderopacity="1.0"
     inkscape:pageopacity="0.0"
     inkscape:pageshadow="2"
     inkscape:zoom="0.7"
     inkscape:cx="417.66049"
     inkscape:cy="775.59771"
     inkscape:document-units="px"
     inkscape:current-layer="g4909"
     showgrid="false"
     showguides="true"
     inkscape:guide-bbox="true"
     inkscape:window-width="1920"
     inkscape:window-height="1056"
     inkscape:window-x="0"
     inkscape:window-y="0"
     inkscape:window-maximized="1">
    <sodipodi:guide
       position="427.67858,871.51788"
       orientation="1,0"
       id="guide4913" />
    <sodipodi:guide
       position="410,875.17859"
       orientation="1,0"
       id="guide4919" />
    <sodipodi:guide
       position="445.44643,873.68306"
       orientation="1,0"
       id="guide4921" />
    <sodipodi:guide
       position="905.91744,824.30028"
       orientation="1,0"
       id="guide4169" />
    <sodipodi:guide
       position="950.98215,795.35716"
       orientation="1,0"
       id="guide4171" />
    <sodipodi:guide
       position="34.061081,821.34874"
       orientation="1,0"
       id="guide4178" />
    <sodipodi:guide
       position="-11.048544,804.90219"
       orientation="1,0"
       id="guide4180" />
  </sodipodi:namedview>
  <metadata
     id="metadata4257">
    <rdf:RDF>
      <cc:Work
         rdf:about="">
        <dc:format>image/svg+xml</dc:format>
        <dc:type
           rdf:resource="http://purl.org/dc/dcmitype/StillImage" />
        <dc:title />
      </cc:Work>
    </rdf:RDF>
  </metadata>
  <g
     inkscape:label="Capa 1"
     inkscape:groupmode="layer"
     id="layer1">
    <g
       transform="matrix(5.144775,0,0,-5.144775,-563.80188,614.12593)"
       id="g28"
       style="fill:#094854;fill-opacity:1">
      <g
         id="g30"
         clip-path="url(#clipPath32)"
         style="fill:#094854;fill-opacity:1"
         inkscape:export-xdpi="150.8"
         inkscape:export-ydpi="150.8">
        <g
           id="g36"
           transform="translate(116.2932,100.4216)"
           style="fill:#094854;fill-opacity:1">
          <path
             d="m 0,0 3.729,0 0,-21.892 c 0,0 1.764,-0.04 2.566,-0.04 0.802,0 0.601,0.601 0.601,1.002 l 0,1.965 3.288,0 0,-6.335 -10.264,0 L 0,0 Z"
             style="fill:#094854;fill-opacity:1;fill-rule:nonzero;stroke:none"
             id="path38"
             inkscape:connector-curvature="0" />
        </g>
        <g
           id="g40"
           transform="translate(128.4422,100.3815)"
           style="fill:#094854;fill-opacity:1">
          <path
             d="m 0,0 0,-25.26 8.621,0 c 0.608,0 1.684,1.323 1.684,2.285 l 0,7.217 -3.649,0 0,-4.571 c 0,-0.721 -0.08,-1.684 -0.762,-1.684 l -2.566,0 0,9.784 3.328,0 0,3.568 -3.248,0 0,5.052 2.486,0 c 0.642,0 0.722,-0.561 0.722,-0.802 l 0,-1.403 3.649,0 0,3.488 c 0,0.883 -0.489,2.286 -2.126,2.286 C 6.502,-0.04 0,0 0,0"
             style="fill:#094854;fill-opacity:1;fill-rule:nonzero;stroke:none"
             id="path42"
             inkscape:connector-curvature="0" />
        </g>
        <g
           id="g44"
           transform="translate(178.9731,100.3815)"
           style="fill:#094854;fill-opacity:1">
          <path
             d="m 0,0 0,-25.26 8.621,0 c 0.609,0 1.684,1.323 1.684,2.285 l 0,7.217 -3.649,0 0,-4.571 c 0,-0.721 -0.08,-1.684 -0.762,-1.684 l -2.566,0 0,9.784 3.328,0 0,3.568 -3.248,0 0,5.052 2.486,0 c 0.642,0 0.722,-0.561 0.722,-0.802 l 0,-1.403 3.649,0 0,3.488 c 0,0.883 -0.489,2.286 -2.126,2.286 C 6.502,-0.04 0,0 0,0"
             style="fill:#094854;fill-opacity:1;fill-rule:nonzero;stroke:none"
             id="path46"
             inkscape:connector-curvature="0" />
        </g>
        <g
           id="g48"
           transform="translate(262.3556,100.3815)"
           style="fill:#f16c23;fill-opacity:1">
          <path
             d="m 0,0 0,-25.26 8.621,0 c 0.608,0 1.684,1.323 1.684,2.285 l 0,7.217 -3.649,0 0,-4.571 c 0,-0.721 -0.08,-1.684 -0.762,-1.684 l -2.566,0 0,9.784 3.328,0 0,3.568 -3.248,0 0,5.052 2.486,0 c 0.642,0 0.722,-0.561 0.722,-0.802 l 0,-1.403 3.648,0 0,3.488 c 0,0.883 -0.488,2.286 -2.125,2.286 C 6.502,-0.04 0,0 0,0"
             style="fill:#f16c23;fill-opacity:1;fill-rule:nonzero;stroke:none"
             id="path50"
             inkscape:connector-curvature="0" />
        </g>
        <g
           id="g52"
           transform="translate(145.0421,83.0186)"
           style="fill:#094854;fill-opacity:1">
          <path
             d="M 0,0 1.597,8.43 2.84,0 0,0 Z m 3.461,17.303 -3.55,0 -4.436,-25.2 3.549,0 0.621,4.17 3.904,0 0.622,-4.17 3.46,0 -4.17,25.2 z"
             style="fill:#094854;fill-opacity:1;fill-rule:nonzero;stroke:none"
             id="path54"
             inkscape:connector-curvature="0" />
        </g>
        <g
           id="g56"
           transform="translate(215.4182,83.0186)"
           style="fill:#f16c23;fill-opacity:1">
          <path
             d="M 0,0 1.597,8.43 2.84,0 0,0 Z m 3.461,17.303 -3.55,0 -4.436,-25.2 3.549,0 0.621,4.17 3.904,0 0.622,-4.17 3.46,0 -4.17,25.2 z"
             style="fill:#f16c23;fill-opacity:1;fill-rule:nonzero;stroke:none"
             id="path58"
             inkscape:connector-curvature="0" />
        </g>
        <g
           id="g60"
           transform="translate(241.2816,83.0186)"
           style="fill:#f16c23;fill-opacity:1">
          <path
             d="M 0,0 1.597,8.43 2.84,0 0,0 Z m 3.461,17.303 -3.55,0 -4.436,-25.2 3.549,0 0.621,4.17 3.904,0 0.622,-4.17 3.46,0 -4.17,25.2 z"
             style="fill:#f16c23;fill-opacity:1;fill-rule:nonzero;stroke:none"
             id="path62"
             inkscape:connector-curvature="0" />
        </g>
        <g
           id="g64"
           transform="translate(154.5368,96.4176)"
           style="fill:#094854;fill-opacity:1">
          <path
             d="m 0,0 c 0,0 0.089,-14.908 0.089,-16.327 0,-1.42 -0.242,-4.969 1.597,-4.969 l 5.945,0 c 1.041,0 2.485,0.798 2.485,3.46 l 0,13.399 -5.147,0 0,-3.904 1.775,0 c 0,0 -0.089,-6.3 -0.089,-7.188 0,-0.887 -0.266,-2.218 -0.976,-2.218 -0.71,0 -1.154,0.003 -1.597,0.003 -0.444,0 -0.71,0.973 -0.71,1.949 l 0,15.085 c 0,1.154 0.266,1.42 0.887,1.42 l 1.509,0 c 0.621,0 0.798,-0.533 0.798,-1.154 l 0,-1.419 3.284,0 0,3.993 c 0,1.064 -0.509,1.952 -1.509,1.952 l -6.478,0 C 0.952,4.082 0,3.017 0,0"
             style="fill:#094854;fill-opacity:1;fill-rule:nonzero;stroke:none"
             id="path66"
             inkscape:connector-curvature="0" />
        </g>
        <g
           id="g68"
           transform="translate(250.3278,96.4176)"
           style="fill:#f16c23;fill-opacity:1">
          <path
             d="m 0,0 c 0,0 0.089,-14.908 0.089,-16.327 0,-1.42 -0.242,-4.969 1.597,-4.969 l 5.945,0 c 1.041,0 2.485,0.798 2.485,3.46 l 0,13.399 -5.147,0 0,-3.904 1.775,0 c 0,0 -0.089,-6.3 -0.089,-7.188 0,-0.887 -0.266,-2.218 -0.976,-2.218 -0.71,0 -1.154,0.003 -1.597,0.003 -0.444,0 -0.71,0.973 -0.71,1.949 l 0,15.085 c 0,1.154 0.266,1.42 0.887,1.42 l 1.509,0 c 0.621,0 0.798,-0.533 0.798,-1.154 l 0,-1.419 3.284,0 0,3.993 c 0,1.064 -0.509,1.952 -1.509,1.952 l -6.478,0 C 0.952,4.082 0,3.017 0,0"
             style="fill:#f16c23;fill-opacity:1;fill-rule:nonzero;stroke:none"
             id="path70"
             inkscape:connector-curvature="0" />
        </g>
        <g
           id="g72"
           transform="translate(167.2652,100.4981)"
           style="fill:#094854;fill-opacity:1">
          <path
             d="m 0,0 3.426,0 c 0,0 -0.005,-16.275 -0.005,-18.256 0,-1.981 -0.098,-3.748 0.518,-3.748 l 2.057,0 c 0.742,0 0.91,0.107 0.91,4.283 l 0,17.667 3.213,0 0,-21.308 c 0,-1.873 -0.536,-4.004 -2.302,-4.004 -1.767,0 -4.488,-0.011 -5.622,-0.011 -1.134,0 -2.196,1.713 -2.196,4.122 C -0.001,-18.845 0,0 0,0"
             style="fill:#094854;fill-opacity:1;fill-rule:nonzero;stroke:none"
             id="path74"
             inkscape:connector-curvature="0" />
        </g>
        <g
           id="g76"
           transform="translate(196.1683,100.4819)"
           style="fill:#f16c23;fill-opacity:1">
          <path
             d="m 0,0 4.299,0 2.589,-11.719 2.907,11.674 4.071,0 0,-25.316 -3.713,0 0.582,12.971 -3.981,-12.658 -3.623,12.595 0,-12.908 -3.125,0 L 0,0 Z"
             style="fill:#f16c23;fill-opacity:1;fill-rule:nonzero;stroke:none"
             id="path78"
             inkscape:connector-curvature="0" />
        </g>
        <g
           id="g80"
           transform="translate(224.5128,100.4208)"
           style="fill:#f16c23;fill-opacity:1">
          <path
             d="M 0,0 3.807,0 7.21,-11.575 7.21,0 l 3.472,0 0,-25.267 -3.737,0 -3.539,14.287 0,-14.32 L 0,-25.3 0,0 Z"
             style="fill:#f16c23;fill-opacity:1;fill-rule:nonzero;stroke:none"
             id="path82"
             inkscape:connector-curvature="0" />
        </g>
        <g
           id="g84"
           transform="translate(281.488,91.4573)"
           style="fill:#f16c23;fill-opacity:1">
          <path
             d="m 0,0 c 0,-0.504 -0.134,-1.546 -0.571,-1.882 -0.437,-0.336 -2.723,-1.95 -2.723,-1.95 l 0,9.378 c 0,0 1.699,0.016 2.27,0.016 C -0.453,5.562 0,4.908 0,4.437 L 0,0 Z m 0.519,-5.109 c 0,0 1.681,1.176 2.32,1.714 0.638,0.538 0.638,2.353 0.638,3.294 l 0,7.126 c 0,0.74 -0.638,1.95 -1.546,1.95 -0.907,0 -8.639,-0.034 -8.639,-0.034 l 0,-25.277 3.563,0 0,9.277 3.664,-9.277 3.664,0 -3.664,11.227 z"
             style="fill:#f16c23;fill-opacity:1;fill-rule:nonzero;stroke:none"
             id="path86"
             inkscape:connector-curvature="0" />
        </g>
      </g>
      <g
         id="g4909"
         transform="matrix(1.0619956,0,0,1,-14.70957,0)">
        <path
           inkscape:connector-curvature="0"
           id="path26"
           style="fill:#094853;fill-opacity:1;fill-rule:nonzero;stroke:none"
           d="m 291.10831,63.902203 -86.4201,0 -89.58699,0 0,5.98414 89.58699,0 86.4201,0 z"
           sodipodi:nodetypes="ccccccc"
           inkscape:export-xdpi="150.8"
           inkscape:export-ydpi="150.8" />
        <path
           inkscape:connector-curvature="0"
           id="path26-6"
           style="fill:#f16c23;fill-opacity:1;fill-rule:nonzero;stroke:none"
           d="m 198.54159,63.900666 -83.49962,0 0,5.98414 77.98726,0 z"
           sodipodi:nodetypes="ccccc"
           inkscape:export-xdpi="150.8"
           inkscape:export-ydpi="150.8" />
      </g>
    </g>
  </g>
</svg>
